<svg width="29" height="34" viewBox="0 0 29 34" fill="none" xmlns="http://www.w3.org/2000/svg">
<path d="M12.4009 16.8395C12.4009 20.4158 9.62486 23.3149 6.20045 23.3149C2.77604 23.3149 0 20.4158 0 16.8395C0 13.2633 2.77604 10.3642 6.20045 10.3642C9.62486 10.3642 12.4009 13.2633 12.4009 16.8395Z" fill="#141414"/>
<path d="M13.1221 7.59882H6.20052L2.66864 0.440552H13.1221C21.7945 0.440552 28.8248 7.78261 28.8248 16.8395C28.8248 25.8964 21.7945 33.2384 13.1221 33.2384H2.66864L6.20052 26.0802H13.1221C18.0089 26.0802 21.9705 21.943 21.9705 16.8395C21.9705 11.736 18.0089 7.59882 13.1221 7.59882Z" fill="#141414"/>
</svg>
