<svg width="175" height="43" viewBox="0 0 175 43" fill="none" xmlns="http://www.w3.org/2000/svg">
<path d="M175 9.37079V16.1178H170.379V24.411C170.379 25.3168 170.723 25.9103 171.411 26.1914C172.099 26.4413 173.295 26.5194 175 26.4257V32.7978C170.753 33.2664 167.792 32.8447 166.117 31.5328C164.472 30.1896 163.649 27.8157 163.649 24.411V16.1178H160.06V9.37079H163.649V4.91965L170.379 2.81121V9.37079H175Z" fill="white"/>
<path d="M149.91 16.2115C149.91 16.6176 150.224 16.9768 150.852 17.2891C151.48 17.5703 152.467 17.8982 153.813 18.2731C158.598 19.3663 160.976 21.8652 160.946 25.7697C160.946 28.2998 160.049 30.2209 158.255 31.5328C156.43 32.8134 154.217 33.4538 151.614 33.4538C146.889 33.4538 143.673 31.5952 141.969 27.8782L147.801 24.4109C148.399 26.2539 149.67 27.1753 151.614 27.1753C153.23 27.1753 154.037 26.6912 154.037 25.7229C154.037 25.0357 152.736 24.3485 150.134 23.6613C149.177 23.3802 148.354 23.099 147.666 22.8179C146.978 22.5055 146.231 22.0839 145.423 21.5529C144.645 20.9906 144.047 20.2722 143.629 19.3976C143.21 18.5229 143 17.5234 143 16.3989C143 13.9937 143.838 12.1039 145.513 10.7296C147.188 9.3864 149.282 8.71483 151.794 8.71483C155.712 8.71483 158.628 10.386 160.543 13.7282L154.8 16.9611C154.082 15.5868 153.08 14.8996 151.794 14.8996C150.538 14.8996 149.91 15.3369 149.91 16.2115Z" fill="white"/>
<path d="M142.123 23.8956H126.196C126.944 26.0821 128.739 27.1753 131.58 27.1753C133.405 27.1753 134.84 26.5819 135.887 25.3949L141.271 28.6278C139.088 31.8451 135.827 33.4538 131.49 33.4538C127.752 33.4538 124.731 32.2824 122.428 29.9397C120.184 27.597 119.063 24.6452 119.063 21.0843C119.063 17.5859 120.17 14.6497 122.383 12.2757C124.626 9.9018 127.497 8.71483 130.997 8.71483C134.257 8.71483 136.964 9.9018 139.117 12.2757C141.301 14.5872 142.393 17.5234 142.393 21.0843C142.393 22.0839 142.303 23.0209 142.123 23.8956ZM126.062 18.6479H135.708C135.05 16.1802 133.464 14.9464 130.952 14.9464C128.35 14.9464 126.72 16.1802 126.062 18.6479Z" fill="white"/>
<path d="M108.968 8.71483C111.391 8.71483 113.38 9.57382 114.935 11.2918C116.55 13.041 117.358 15.415 117.358 18.4136V32.7978H110.628V19.4444C110.628 18.1013 110.269 17.0549 109.551 16.3052C108.833 15.5555 107.891 15.1807 106.725 15.1807C105.409 15.1807 104.377 15.6024 103.629 16.4458C102.911 17.2579 102.552 18.4449 102.552 20.0067V32.7978H95.8224V9.37078H102.552V11.5729C103.898 9.66753 106.037 8.71483 108.968 8.71483Z" fill="white"/>
<path d="M83.0786 8.71483C86.0098 8.71483 88.5372 9.91741 90.6608 12.3226C92.7545 14.6965 93.8014 17.6171 93.8014 21.0843C93.8014 24.5827 92.7545 27.5189 90.6608 29.8929C88.5671 32.2668 86.0397 33.4538 83.0786 33.4538C80.1773 33.4538 77.9491 32.5011 76.3937 30.5957V42.1687H69.664V9.37078H76.3937V11.5729C77.9491 9.66753 80.1773 8.71483 83.0786 8.71483ZM77.8743 25.2543C78.8912 26.2851 80.1774 26.8005 81.7327 26.8005C83.288 26.8005 84.5592 26.2851 85.5462 25.2543C86.5631 24.2235 87.0716 22.8335 87.0716 21.0843C87.0716 19.3351 86.5631 17.9451 85.5462 16.9143C84.5592 15.8835 83.288 15.3681 81.7327 15.3681C80.1774 15.3681 78.8912 15.8835 77.8743 16.9143C76.8872 17.9451 76.3937 19.3351 76.3937 21.0843C76.3937 22.8335 76.8872 24.2235 77.8743 25.2543Z" fill="white"/>
<path d="M64.1974 29.8929C61.9243 32.2668 59.1127 33.4538 55.7628 33.4538C52.4129 33.4538 49.6013 32.2668 47.3282 29.8929C45.0251 27.4877 43.8736 24.5515 43.8736 21.0843C43.8736 17.6483 45.0251 14.7278 47.3282 12.3226C49.6312 9.91741 52.4428 8.71483 55.7628 8.71483C59.0828 8.71483 61.8943 9.91741 64.1974 12.3226C66.5005 14.7278 67.652 17.6483 67.652 21.0843C67.652 24.5515 66.5005 27.4877 64.1974 29.8929ZM50.6033 21.0843C50.6033 22.7086 51.0968 24.0361 52.0839 25.0669C53.0709 26.0977 54.2972 26.6131 55.7628 26.6131C57.2284 26.6131 58.4547 26.0977 59.4417 25.0669C60.4288 24.0361 60.9223 22.7086 60.9223 21.0843C60.9223 19.46 60.4288 18.1325 59.4417 17.1017C58.4547 16.0709 57.2284 15.5555 55.7628 15.5555C54.2972 15.5555 53.0709 16.0709 52.0839 17.1017C51.0968 18.1325 50.6033 19.46 50.6033 21.0843Z" fill="white"/>
<path d="M37.5714 9.37079V13.5408C37.9902 12.0727 38.8127 10.9326 40.039 10.1205C41.2952 9.30831 42.716 8.90224 44.3012 8.90224V16.8674C42.6262 16.5863 41.0859 16.8831 39.6801 17.7577C38.2743 18.601 37.5714 20.0848 37.5714 22.2088V32.7978H30.8417V9.37079H37.5714Z" fill="white"/>
<path d="M12.4009 16.399C12.4009 19.9752 9.62486 22.8743 6.20045 22.8743C2.77604 22.8743 0 19.9752 0 16.399C0 12.8227 2.77604 9.92364 6.20045 9.92364C9.62486 9.92364 12.4009 12.8227 12.4009 16.399Z" fill="white"/>
<path d="M13.1221 7.15827H6.20052L2.66864 0H13.1221C21.7945 0 28.8248 7.34206 28.8248 16.3989C28.8248 25.4558 21.7945 32.7979 13.1221 32.7979H2.66864L6.20052 25.6396H13.1221C18.0089 25.6396 21.9705 21.5024 21.9705 16.3989C21.9705 11.2955 18.0089 7.15827 13.1221 7.15827Z" fill="white"/>
</svg>
