<svg width="420" height="101" viewBox="0 0 420 101" fill="none" xmlns="http://www.w3.org/2000/svg">
<path d="M420 22.4444V38.6044H408.909V58.4677C408.909 60.6374 409.735 62.0589 411.386 62.7322C413.037 63.3307 415.908 63.5178 420 63.2933V78.5555C409.807 79.6778 402.7 78.6678 398.68 75.5255C394.732 72.3085 392.758 66.6226 392.758 58.4677V38.6044H384.144V22.4444H392.758V11.7833L408.909 6.73326V22.4444H420Z" fill="url(#paint0_radial_154_5108)"/>
<path d="M359.783 38.8288C359.783 39.8014 360.537 40.6618 362.044 41.41C363.552 42.0833 365.921 42.8688 369.151 43.7666C380.636 46.3851 386.343 52.3703 386.271 61.7222C386.271 67.7822 384.118 72.3833 379.811 75.5255C375.432 78.5929 370.12 80.1267 363.875 80.1267C352.533 80.1267 344.816 75.6752 340.724 66.7722L354.722 58.4677C356.158 62.8818 359.209 65.0889 363.875 65.0889C367.751 65.0889 369.689 63.9292 369.689 61.61C369.689 59.964 366.567 58.3181 360.321 56.6722C358.024 55.9989 356.05 55.3255 354.399 54.6522C352.748 53.904 350.954 52.894 349.015 51.6222C347.149 50.2755 345.713 48.5548 344.708 46.4599C343.703 44.3651 343.201 41.9711 343.201 39.2777C343.201 33.517 345.211 28.9907 349.231 25.6988C353.251 22.4818 358.276 20.8733 364.305 20.8733C373.709 20.8733 380.708 24.8759 385.302 32.8811L371.52 40.6244C369.797 37.3325 367.392 35.6866 364.305 35.6866C361.291 35.6866 359.783 36.734 359.783 38.8288Z" fill="url(#paint1_radial_154_5108)"/>
<path d="M341.096 57.2333H302.871C304.666 62.4703 308.973 65.0889 315.792 65.0889C320.171 65.0889 323.617 63.6674 326.129 60.8244L339.05 68.5678C333.81 76.2737 325.986 80.1267 315.577 80.1267C306.604 80.1267 299.354 77.3211 293.827 71.71C288.443 66.0989 285.751 59.0289 285.751 50.5C285.751 42.1207 288.407 35.0881 293.719 29.4022C299.103 23.7162 305.994 20.8733 314.393 20.8733C322.217 20.8733 328.714 23.7162 333.882 29.4022C339.122 34.9385 341.742 41.9711 341.742 50.5C341.742 52.894 341.527 55.1385 341.096 57.2333ZM302.548 44.6644H325.699C324.119 38.754 320.315 35.7988 314.285 35.7988C308.04 35.7988 304.127 38.754 302.548 44.6644Z" fill="url(#paint2_radial_154_5108)"/>
<path d="M261.523 20.8733C267.337 20.8733 272.111 22.9307 275.844 27.0455C279.72 31.2351 281.658 36.9211 281.658 44.1033V78.5555H265.507V46.5722C265.507 43.3551 264.645 40.8488 262.923 39.0533C261.2 37.2577 258.939 36.3599 256.139 36.3599C252.98 36.3599 250.504 37.3699 248.709 39.3899C246.987 41.3351 246.125 44.1781 246.125 47.9188V78.5555H229.974V22.4444H246.125V27.7188C249.355 23.1551 254.488 20.8733 261.523 20.8733Z" fill="url(#paint3_radial_154_5108)"/>
<path d="M199.389 20.8733C206.424 20.8733 212.489 23.7536 217.586 29.5144C222.611 35.2003 225.123 42.1955 225.123 50.5C225.123 58.8792 222.611 65.9118 217.586 71.5978C212.561 77.2837 206.495 80.1267 199.389 80.1267C192.426 80.1267 187.078 77.8448 183.345 73.2811V101H167.194V22.4444H183.345V27.7188C187.078 23.1551 192.426 20.8733 199.389 20.8733ZM186.898 60.4877C189.339 62.9566 192.426 64.1911 196.158 64.1911C199.891 64.1911 202.942 62.9566 205.311 60.4877C207.752 58.0189 208.972 54.6896 208.972 50.5C208.972 46.3103 207.752 42.9811 205.311 40.5122C202.942 38.0433 199.891 36.8088 196.158 36.8088C192.426 36.8088 189.339 38.0433 186.898 40.5122C184.529 42.9811 183.345 46.3103 183.345 50.5C183.345 54.6896 184.529 58.0189 186.898 60.4877Z" fill="url(#paint4_radial_154_5108)"/>
<path d="M154.074 71.5978C148.618 77.2837 141.87 80.1267 133.831 80.1267C125.791 80.1267 119.043 77.2837 113.588 71.5978C108.06 65.837 105.297 58.8044 105.297 50.5C105.297 42.2703 108.06 35.2751 113.588 29.5144C119.115 23.7536 125.863 20.8733 133.831 20.8733C141.799 20.8733 148.546 23.7536 154.074 29.5144C159.601 35.2751 162.365 42.2703 162.365 50.5C162.365 58.8044 159.601 65.837 154.074 71.5978ZM121.448 50.5C121.448 54.3903 122.632 57.57 125.001 60.0389C127.37 62.5078 130.313 63.7422 133.831 63.7422C137.348 63.7422 140.291 62.5078 142.66 60.0389C145.029 57.57 146.213 54.3903 146.213 50.5C146.213 46.6096 145.029 43.43 142.66 40.9611C140.291 38.4922 137.348 37.2577 133.831 37.2577C130.313 37.2577 127.37 38.4922 125.001 40.9611C122.632 43.43 121.448 46.6096 121.448 50.5Z" fill="url(#paint5_radial_154_5108)"/>
<path d="M90.1714 22.4444V32.4322C91.1764 28.9159 93.1505 26.1851 96.0936 24.2399C99.1085 22.2948 102.518 21.3222 106.323 21.3222V40.4C102.303 39.7266 98.606 40.4374 95.2322 42.5322C91.8583 44.5522 90.1714 48.1059 90.1714 53.1933V78.5555H74.02V22.4444H90.1714Z" fill="url(#paint6_radial_154_5108)"/>
<path d="M29.7622 39.2779C29.7622 47.8435 23.0997 54.7873 14.8811 54.7873C6.66249 54.7873 0 47.8435 0 39.2779C0 30.7123 6.66249 23.7686 14.8811 23.7686C23.0997 23.7686 29.7622 30.7123 29.7622 39.2779Z" fill="url(#paint7_radial_154_5108)"/>
<path d="M31.493 17.1451H14.8813L6.40474 0H31.493C52.3067 0 69.1796 17.5853 69.1796 39.2778C69.1796 60.9704 52.3067 78.5557 31.493 78.5557H6.40474L14.8813 61.4106H31.493C43.2214 61.4106 52.7291 51.5014 52.7291 39.2778C52.7291 27.0542 43.2214 17.1451 31.493 17.1451Z" fill="url(#paint8_radial_154_5108)"/>
<defs>
<radialGradient id="paint0_radial_154_5108" cx="0" cy="0" r="1" gradientUnits="userSpaceOnUse" gradientTransform="translate(18.5 51) rotate(-5.95646) scale(371.003 1542.78)">
<stop stop-color="#7AFF87"/>
<stop offset="1" stop-color="#25DD37"/>
</radialGradient>
<radialGradient id="paint1_radial_154_5108" cx="0" cy="0" r="1" gradientUnits="userSpaceOnUse" gradientTransform="translate(18.5 51) rotate(-5.95646) scale(371.003 1542.78)">
<stop stop-color="#7AFF87"/>
<stop offset="1" stop-color="#25DD37"/>
</radialGradient>
<radialGradient id="paint2_radial_154_5108" cx="0" cy="0" r="1" gradientUnits="userSpaceOnUse" gradientTransform="translate(18.5 51) rotate(-5.95646) scale(371.003 1542.78)">
<stop stop-color="#7AFF87"/>
<stop offset="1" stop-color="#25DD37"/>
</radialGradient>
<radialGradient id="paint3_radial_154_5108" cx="0" cy="0" r="1" gradientUnits="userSpaceOnUse" gradientTransform="translate(18.5 51) rotate(-5.95646) scale(371.003 1542.78)">
<stop stop-color="#7AFF87"/>
<stop offset="1" stop-color="#25DD37"/>
</radialGradient>
<radialGradient id="paint4_radial_154_5108" cx="0" cy="0" r="1" gradientUnits="userSpaceOnUse" gradientTransform="translate(18.5 51) rotate(-5.95646) scale(371.003 1542.78)">
<stop stop-color="#7AFF87"/>
<stop offset="1" stop-color="#25DD37"/>
</radialGradient>
<radialGradient id="paint5_radial_154_5108" cx="0" cy="0" r="1" gradientUnits="userSpaceOnUse" gradientTransform="translate(18.5 51) rotate(-5.95646) scale(371.003 1542.78)">
<stop stop-color="#7AFF87"/>
<stop offset="1" stop-color="#25DD37"/>
</radialGradient>
<radialGradient id="paint6_radial_154_5108" cx="0" cy="0" r="1" gradientUnits="userSpaceOnUse" gradientTransform="translate(18.5 51) rotate(-5.95646) scale(371.003 1542.78)">
<stop stop-color="#7AFF87"/>
<stop offset="1" stop-color="#25DD37"/>
</radialGradient>
<radialGradient id="paint7_radial_154_5108" cx="0" cy="0" r="1" gradientUnits="userSpaceOnUse" gradientTransform="translate(18.5 51) rotate(-5.95646) scale(371.003 1542.78)">
<stop stop-color="#7AFF87"/>
<stop offset="1" stop-color="#25DD37"/>
</radialGradient>
<radialGradient id="paint8_radial_154_5108" cx="0" cy="0" r="1" gradientUnits="userSpaceOnUse" gradientTransform="translate(18.5 51) rotate(-5.95646) scale(371.003 1542.78)">
<stop stop-color="#7AFF87"/>
<stop offset="1" stop-color="#25DD37"/>
</radialGradient>
</defs>
</svg>
